<?xml version="1.0" encoding="utf-8"?>
<!-- Generator: Adobe Illustrator 15.0.0, SVG Export Plug-In . SVG Version: 6.00 Build 0)  -->
<!DOCTYPE svg PUBLIC "-//W3C//DTD SVG 1.1//EN" "http://www.w3.org/Graphics/SVG/1.1/DTD/svg11.dtd">
<svg version="1.1" id="Layer_2" xmlns="http://www.w3.org/2000/svg" xmlns:xlink="http://www.w3.org/1999/xlink" x="0px" y="0px"
	 width="100px" height="100px" viewBox="0 0 100 100" enable-background="new 0 0 100 100" xml:space="preserve">
<g>
	<g>
		<g>
			<path d="M71.621,64.722v-0.097c5.443-0.682,9.659-5.314,9.659-10.944c0-5.844-4.556-10.578-10.299-10.966
				c-0.241-0.046-0.485-0.075-0.74-0.075c-2.031,0-3.681,1.65-3.681,3.68c0,2.033,1.649,3.681,3.681,3.681
				c2.034,0,3.68,1.649,3.68,3.681c0,2.032-1.649,3.681-3.68,3.681h-0.802v7.36h0.802H71.621z"/>
			<path d="M89.38,50.076C89.143,50.029,88.891,50,88.642,50c-2.033,0-3.681,1.649-3.681,3.681c0,2.032,1.647,3.681,3.681,3.681
				c2.032,0,3.679,1.649,3.679,3.68c0,2.033-1.646,3.681-3.679,3.681H83.12c-2.032,0-3.68,1.65-3.68,3.677
				c0,2.034,1.647,3.681,3.68,3.681h5.521h1.378v-0.094c5.445-0.683,9.661-5.319,9.661-10.944
				C99.681,55.197,95.127,50.464,89.38,50.076z"/>
		</g>
		<path d="M37.252,44.483c1.018-1.761,3.267-2.361,5.029-1.342l4.04,2.327v-4.666c0-2.031,1.65-3.68,3.681-3.68
			c2.03,0,3.681,1.649,3.681,3.68v4.666l4.039-2.333c1.762-1.014,4.012-0.414,5.021,1.348c1.021,1.761,0.417,4.011-1.341,5.023
			l-4.041,2.338l4.041,2.333c1.758,1.017,2.361,3.267,1.341,5.028c-1.016,1.752-3.26,2.355-5.021,1.34l-4.039-2.328v4.665
			c0,2.034-1.65,3.681-3.681,3.681c-2.031,0-3.681-1.646-3.681-3.681v-4.665l-4.04,2.338c-1.76,1.017-4.011,0.418-5.022-1.343
			c-1.017-1.761-0.415-4.015,1.347-5.026l4.035-2.342l-4.039-2.333C36.841,48.494,36.239,46.244,37.252,44.483z M50.002,55.524
			c2.03,0,3.681-1.648,3.681-3.681c0-2.031-1.65-3.68-3.681-3.68c-2.031,0-3.681,1.649-3.681,3.68
			C46.321,53.876,47.971,55.524,50.002,55.524z"/>
	</g>
	<path d="M71.621,72.176l-1.38-0.101h-0.802v0.002H30.333h-0.002h-0.572c-2.032,0-3.681-1.646-3.681-3.681
		c0-2.028,1.649-3.675,3.681-3.675c0.172,0,0.379,0,0.574,0v-7.36c-0.193,0-0.394,0-0.574,0c-12.195,0-22.081-9.888-22.081-22.082
		c0-12.195,9.886-22.083,22.081-22.083c10.471,0,19.2,7.316,21.464,17.098c2.301-1.492,5.028-2.376,7.976-2.376
		c5.481,0,10.251,3.001,12.788,7.447c3.311,0.312,6.354,1.51,8.923,3.341C79.052,28.39,70.05,20.558,59.199,20.558
		c-1.283,0-2.52,0.169-3.741,0.377c-5.032-9-14.65-15.096-25.699-15.096c-16.26,0-29.44,13.182-29.44,29.442
		c0,12.885,8.292,23.81,19.821,27.799c-0.881,1.58-1.42,3.377-1.42,5.317c0,5.629,4.216,10.266,9.661,10.946l1.38,0.096h0.574
		v-0.002h39.104h0.803c2.033,0,3.681,1.649,3.681,3.681c0,2.032-1.647,3.68-3.681,3.68c-2.032,0-3.68,1.65-3.68,3.681
		c0,2.033,1.647,3.681,3.68,3.681c0.254,0,0.498-0.028,0.739-0.073c5.743-0.393,10.301-5.122,10.301-10.968
		C81.28,77.494,77.064,72.855,71.621,72.176z"/>
</g>
</svg>
