<?xml version="1.0" encoding="utf-8"?>
<!-- Generator: Adobe Illustrator 15.0.0, SVG Export Plug-In . SVG Version: 6.00 Build 0)  -->
<!DOCTYPE svg PUBLIC "-//W3C//DTD SVG 1.1//EN" "http://www.w3.org/Graphics/SVG/1.1/DTD/svg11.dtd">
<svg version="1.1" id="Layer_1" xmlns="http://www.w3.org/2000/svg" xmlns:xlink="http://www.w3.org/1999/xlink" x="0px" y="0px"
	 width="100px" height="100px" viewBox="0 0 100 100" enable-background="new 0 0 100 100" xml:space="preserve">
<path d="M81.499,70.928V61.07c5.375-3.113,9.001-8.912,9.001-15.57c0-9.941-8.061-18.001-18.001-18.001
	c-3.602,0-6.935,1.081-9.752,2.905C59.979,18.441,49.308,9.5,36.501,9.5C21.592,9.5,9.504,21.588,9.504,36.497
	c0,7.987,3.49,15.14,9,20.082v11.062C7.755,61.413,0.504,49.815,0.504,36.497c0-19.879,16.118-35.995,35.998-35.995
	c13.509,0,25.265,7.451,31.422,18.458c1.494-0.255,3.011-0.461,4.575-0.461c14.911,0,26.997,12.087,26.997,27.001
	C99.496,57.251,91.98,67.219,81.499,70.928z M32.003,45.5c2.483,0,4.498,2.017,4.498,4.5v35.997c0,2.487-2.015,4.501-4.498,4.501
	c-2.485,0-4.5-2.014-4.5-4.501V50C27.503,47.517,29.518,45.5,32.003,45.5z M50.002,54.5c2.483,0,4.5,2.016,4.5,4.5v35.998
	c0,2.485-2.017,4.5-4.5,4.5c-2.485,0-4.5-2.015-4.5-4.5V59C45.502,56.513,47.517,54.5,50.002,54.5z M67.999,45.5
	c2.485,0,4.5,2.017,4.5,4.5v35.997c0,2.487-2.015,4.501-4.5,4.501c-2.483,0-4.501-2.014-4.501-4.501V50
	C63.498,47.517,65.516,45.5,67.999,45.5z"/>
</svg>
