<?xml version="1.0" encoding="utf-8"?>
<!-- Generator: Adobe Illustrator 15.0.0, SVG Export Plug-In . SVG Version: 6.00 Build 0)  -->
<!DOCTYPE svg PUBLIC "-//W3C//DTD SVG 1.1//EN" "http://www.w3.org/Graphics/SVG/1.1/DTD/svg11.dtd">
<svg version="1.1" id="Layer_1" xmlns="http://www.w3.org/2000/svg" xmlns:xlink="http://www.w3.org/1999/xlink" x="0px" y="0px"
	 width="100px" height="100px" viewBox="0 0 100 100" enable-background="new 0 0 100 100" xml:space="preserve">
<path d="M89.669,71.792v0.093h-1.364h-5.473c-2.017,0-3.648-1.632-3.648-3.648c0-2.013,1.632-3.645,3.648-3.645h5.473
	c2.013,0,3.645-1.636,3.645-3.648c0-2.015-1.632-3.648-3.645-3.648c-2.017,0-3.648-1.634-3.648-3.648s1.632-3.648,3.648-3.648
	c0.249,0,0.495,0.025,0.73,0.075c5.697,0.385,10.211,5.077,10.211,10.87C99.246,66.521,95.066,71.115,89.669,71.792z M70.062,49.998
	c-2.013,0-3.648-1.633-3.648-3.648c0-2.013,1.636-3.648,3.648-3.648c0.253,0,0.495,0.025,0.734,0.075
	c5.693,0.385,10.211,5.077,10.211,10.87c0,5.581-4.18,10.174-9.577,10.849v0.097h-1.368H55.498c-7.319,0-20.72,0-25.561,0
	c-2.014,0-3.648,1.634-3.648,3.645c0,2.017,1.634,3.648,3.648,3.648h40.125h1.368v0.097c5.397,0.673,9.577,5.271,9.577,10.849
	c0,5.793-4.518,10.483-10.211,10.87c-0.239,0.047-0.484,0.075-0.734,0.075c-2.013,0-3.648-1.636-3.648-3.648
	c0-2.015,1.636-3.648,3.648-3.648c2.014,0,3.648-1.634,3.648-3.648s-1.635-3.648-3.648-3.648H29.937h-1.368v-0.095
	c-5.398-0.675-9.577-5.271-9.577-10.851c0-1.924,0.536-3.705,1.41-5.271C8.973,59.011,0.753,48.181,0.753,35.408
	c0-16.117,13.065-29.183,29.184-29.183c10.952,0,20.484,6.041,25.475,14.966c1.212-0.208,2.438-0.375,3.709-0.375
	c10.753,0,19.678,7.764,21.52,17.989c-2.544-1.815-5.562-3.002-8.843-3.31c-2.516-4.407-7.247-7.382-12.677-7.382
	c-2.922,0-5.626,0.875-7.906,2.354C48.968,20.769,40.318,13.52,29.937,13.52c-12.089,0-21.889,9.799-21.889,21.888
	c0,12.085,9.8,21.887,21.889,21.887c4.739,0,14.87,0,22.254,0h17.871c2.014,0,3.648-1.634,3.648-3.648
	C73.711,51.63,72.079,49.998,70.062,49.998z"/>
</svg>
