<?xml version="1.0" encoding="utf-8"?>
<!-- Generator: Adobe Illustrator 15.0.0, SVG Export Plug-In . SVG Version: 6.00 Build 0)  -->
<!DOCTYPE svg PUBLIC "-//W3C//DTD SVG 1.1//EN" "http://www.w3.org/Graphics/SVG/1.1/DTD/svg11.dtd">
<svg version="1.1" id="Layer_1" xmlns="http://www.w3.org/2000/svg" xmlns:xlink="http://www.w3.org/1999/xlink" x="0px" y="0px"
	 width="100px" height="100px" viewBox="0 0 100 100" enable-background="new 0 0 100 100" xml:space="preserve">
<path d="M94.558,17.168H5.443c-2.589,0-4.691-2.102-4.691-4.688c0-2.589,2.102-4.691,4.691-4.691h89.114
	c2.588,0,4.69,2.102,4.69,4.691C99.248,15.066,97.146,17.168,94.558,17.168z M10.134,26.549h70.352c2.588,0,4.69,2.102,4.69,4.691
	s-2.103,4.688-4.69,4.688H10.134c-2.589,0-4.69-2.102-4.69-4.688C5.443,28.648,7.544,26.549,10.134,26.549z M38.274,45.31h51.592
	c2.589,0,4.691,2.102,4.691,4.688c0,2.589-2.103,4.692-4.691,4.692H38.274c-2.589,0-4.688-2.103-4.688-4.692
	C33.585,47.412,35.685,45.31,38.274,45.31z M42.965,82.83h14.071c2.588,0,4.69,2.103,4.69,4.691c0,2.588-2.103,4.69-4.69,4.69
	H42.965c-2.589,0-4.691-2.103-4.691-4.69C38.274,84.933,40.375,82.83,42.965,82.83z M45.31,68.758c0-2.588,2.102-4.686,4.691-4.686
	H82.83c2.589,0,4.691,2.103,4.691,4.686c0,2.593-2.103,4.691-4.691,4.691H50.001C47.412,73.449,45.31,71.351,45.31,68.758z"/>
</svg>
