<?xml version="1.0" encoding="utf-8"?>
<!-- Generator: Adobe Illustrator 15.0.0, SVG Export Plug-In . SVG Version: 6.00 Build 0)  -->
<!DOCTYPE svg PUBLIC "-//W3C//DTD SVG 1.1//EN" "http://www.w3.org/Graphics/SVG/1.1/DTD/svg11.dtd">
<svg version="1.1" id="Layer_1" xmlns="http://www.w3.org/2000/svg" xmlns:xlink="http://www.w3.org/1999/xlink" x="0px" y="0px"
	 width="100px" height="100px" viewBox="0 0 100 100" enable-background="new 0 0 100 100" xml:space="preserve">
<g id="Layer_2">
</g>
<g id="Layer_1_1_">
	<path d="M43.467,49.941h18.341L50.805,68.285h12.837L39.799,97.632l6.606-22.009H34.295L43.467,49.941z"/>
	<g>
		<path d="M29.939,75.623l2.582-7.227h-2.695c-2.025,0-3.669-1.642-3.669-3.669c0-2.022,1.644-3.666,3.669-3.666
			c1.269,0,3.133,0,5.314,0l2.62-7.337c-3.172,0-6.002,0-7.936,0c-12.156,0-22.011-9.856-22.011-22.01
			c0-12.156,9.854-22.011,22.011-22.011c10.439,0,19.14,7.289,21.396,17.042c2.293-1.487,5.013-2.366,7.95-2.366
			c5.464,0,10.219,2.992,12.748,7.423c3.3,0.31,6.334,1.503,8.895,3.329c-1.853-10.283-10.826-18.09-21.643-18.09
			c-1.278,0-2.512,0.167-3.729,0.376c-5.016-8.975-14.604-15.05-25.617-15.05c-16.208,0-29.347,13.14-29.347,29.347
			c0,12.845,8.266,23.734,19.758,27.712c-0.879,1.574-1.418,3.365-1.418,5.301c0,5.612,4.203,10.232,9.631,10.911"/>
		<path d="M89.255,46.462c-0.236-0.046-0.485-0.075-0.736-0.075c-2.025,0-3.669,1.645-3.669,3.669c0,2.026,1.644,3.669,3.669,3.669
			c2.026,0,3.667,1.645,3.667,3.669c0,2.025-1.641,3.668-3.667,3.668h-5.503c-2.026,0-3.669,1.644-3.669,3.666
			c0,2.027,1.643,3.669,3.669,3.669h5.503h1.374v-0.094c5.429-0.681,9.631-5.301,9.631-10.909
			C99.523,51.567,94.984,46.849,89.255,46.462z"/>
	</g>
	<path d="M71.553,60.965c5.426-0.679,9.629-5.297,9.629-10.909c0-5.826-4.542-10.544-10.267-10.931
		c-0.24-0.047-0.484-0.075-0.738-0.075c-2.024,0-3.669,1.645-3.669,3.668c0,2.026,1.645,3.669,3.669,3.669
		c2.027,0,3.669,1.643,3.669,3.669s-1.645,3.669-3.669,3.669h-5.822l-4.401,7.337h10.224"/>
	<path d="M70.177,68.396h-1.693l-5.962,7.337h7.655c2.024,0,3.669,1.645,3.669,3.669c0,2.026-1.645,3.669-3.669,3.669
		s-3.669,1.645-3.669,3.669c0,2.026,1.645,3.669,3.669,3.669c0.251,0,0.498-0.029,0.738-0.075
		c5.725-0.389,10.267-5.105,10.267-10.932c0-5.608-4.203-10.232-9.629-10.909"/>
</g>
</svg>
