<?xml version="1.0" encoding="utf-8"?>
<!-- Generator: Adobe Illustrator 15.0.0, SVG Export Plug-In . SVG Version: 6.00 Build 0)  -->
<!DOCTYPE svg PUBLIC "-//W3C//DTD SVG 1.1//EN" "http://www.w3.org/Graphics/SVG/1.1/DTD/svg11.dtd">
<svg version="1.1" id="Layer_1" xmlns="http://www.w3.org/2000/svg" xmlns:xlink="http://www.w3.org/1999/xlink" x="0px" y="0px"
	 width="100px" height="100px" viewBox="0 0 100 100" enable-background="new 0 0 100 100" xml:space="preserve">
<path d="M76.906,78.751v-9.154c7.731-1.998,13.456-8.997,13.456-17.354c0-9.903-8.033-17.936-17.938-17.936
	c-3.59,0-6.916,1.076-9.72,2.896c-2.762-11.925-13.395-20.836-26.157-20.836c-14.861,0-26.909,12.049-26.909,26.911
	c0,9.952,5.42,18.624,13.453,23.275v9.967C9.95,71.192,0.67,58.326,0.67,43.274c0-19.813,16.062-35.879,35.877-35.879
	c13.464,0,25.183,7.426,31.317,18.398c1.489-0.254,2.996-0.46,4.56-0.46c14.859,0,26.906,12.049,26.906,26.904
	C99.33,65.575,89.628,76.608,76.906,78.751z M34.463,65.698c1.241-2.146,3.981-2.878,6.128-1.641l4.924,2.841v-5.686
	c0-2.475,2.01-4.485,4.485-4.485c2.475,0,4.485,2.011,4.485,4.485v5.686l4.923-2.843c2.146-1.235,4.889-0.504,6.123,1.643
	c1.24,2.146,0.504,4.888-1.638,6.125l-4.926,2.845l4.926,2.843c2.142,1.24,2.878,3.981,1.638,6.128
	c-1.237,2.142-3.977,2.875-6.123,1.636l-4.923-2.84v5.685c0,2.479-2.011,4.485-4.485,4.485c-2.476,0-4.485-2.006-4.485-4.485v-5.685
	l-4.922,2.845c-2.146,1.239-4.889,0.506-6.126-1.637c-1.239-2.146-0.505-4.89,1.641-6.127l4.922-2.848l-4.922-2.842
	C33.961,70.586,33.228,67.844,34.463,65.698z M50,79.153c2.475,0,4.485-2.008,4.485-4.485c0-2.477-2.011-4.484-4.485-4.484
	c-2.476,0-4.485,2.008-4.485,4.484C45.515,77.143,47.524,79.153,50,79.153z"/>
</svg>
